<?xml version="1.0" standalone="no"?>
<!DOCTYPE svg PUBLIC "-//W3C//DTD SVG 20010904//EN"
 "http://www.w3.org/TR/2001/REC-SVG-20010904/DTD/svg10.dtd">
<svg version="1.0" xmlns="http://www.w3.org/2000/svg"
 width="640.000000pt" height="575.000000pt" viewBox="0 0 640.000000 575.000000"
 preserveAspectRatio="xMidYMid meet">

<g transform="translate(0.000000,575.000000) scale(0.100000,-0.100000)"
fill="#000000" stroke="none">
<path d="M3085 5280 c-802 -92 -1484 -566 -1830 -1275 -114 -233 -179 -440
-215 -685 -25 -172 -34 -322 -25 -435 l7 -95 816 0 817 -1 47 -97 c205 -429
772 -527 1108 -192 64 65 121 151 152 231 l23 59 690 -1 c379 -1 680 -4 668
-6 -22 -4 -23 -9 -24 -96 -1 -254 -47 -541 -117 -732 -42 -116 -127 -271 -212
-387 -120 -164 -376 -409 -628 -601 -54 -41 -61 -52 -24 -32 19 9 44 18 55 21
12 2 23 8 25 14 2 6 8 8 13 4 5 -3 9 0 9 6 0 6 5 8 10 5 6 -3 10 -1 10 4 0 6
6 11 13 11 7 0 60 31 118 68 549 359 911 926 1015 1592 22 140 26 488 6 625
-148 1032 -921 1819 -1947 1981 -119 18 -466 27 -580 14z m-976 -746 c114 -63
152 -197 87 -308 -33 -56 -61 -80 -128 -111 -99 -45 -225 -33 -295 28 -63 55
-76 111 -47 207 20 69 116 169 184 193 71 25 144 22 199 -9z m1319 -1010 c148
-30 274 -115 354 -238 36 -55 54 -102 24 -61 -12 17 -14 14 -20 -31 -12 -90
-17 -108 -27 -93 -6 11 -9 10 -14 -3 -4 -10 -15 -15 -26 -13 -13 3 -21 -3 -25
-21 -6 -23 -8 -21 -23 23 -22 64 -60 118 -74 104 -7 -7 -5 -31 6 -80 34 -138
11 -236 -73 -320 -68 -68 -128 -95 -215 -96 -86 0 -152 29 -238 105 -31 29
-65 53 -74 54 -27 4 -45 79 -39 160 10 132 91 247 214 304 49 23 70 27 147 26
61 0 102 -5 128 -16 43 -20 49 -15 10 6 -16 8 -22 15 -15 16 7 0 11 4 8 9 -4
5 -2 11 4 13 20 6 -3 47 -35 62 -90 43 -254 25 -361 -40 -144 -87 -218 -212
-231 -394 -4 -47 -8 -79 -10 -72 -9 26 -33 12 -34 -20 -1 -27 -3 -23 -10 17
-19 106 13 246 82 361 67 111 209 208 349 238 87 19 126 19 218 0z m-584 -666
c4 -16 12 -28 20 -28 7 0 18 -10 24 -22 l11 -23 0 23 c1 13 5 20 11 17 6 -3
10 0 10 7 0 10 3 9 11 -2 8 -11 12 -12 16 -2 9 23 41 12 62 -22 32 -51 116
-124 174 -151 28 -14 47 -25 41 -25 -11 0 -39 -51 -32 -59 1 -2 -7 -8 -20 -12
-24 -9 -112 8 -172 33 -41 18 -91 71 -121 131 -24 46 -49 131 -48 162 1 22 4
15 13 -27z m-47 -10 c-3 -8 -6 -5 -6 6 -1 11 2 17 5 13 3 -3 4 -12 1 -19z m33
-83 c0 -5 -5 -3 -10 5 -5 8 -10 20 -10 25 0 6 5 3 10 -5 5 -8 10 -19 10 -25z
m100 -150 c13 -14 21 -25 18 -25 -2 0 -15 11 -28 25 -13 14 -21 25 -18 25 2 0
15 -11 28 -25z"/>
</g>
</svg>
